<svg width="417" height="100" viewBox="0 0 417 100" fill="none" xmlns="http://www.w3.org/2000/svg">
<path d="M171.333 12.0041H155.413V53.5697H141.512V12.0041H125.592V0H171.333V12.0041Z" fill="#243746"/>
<path d="M175.027 0H187.734V19.9568H187.883C189.827 15.9802 195.058 13.5045 199.692 13.5045C212.622 13.5045 213.669 22.9585 213.669 28.5856V53.5697H200.963V34.7379C200.963 29.4109 201.56 24.0087 194.61 24.0087C189.827 24.0087 187.734 28.0601 187.734 32.3368V53.5697H175.027V0Z" fill="#243746"/>
<path d="M237.244 44.942C243.148 44.942 245.017 39.0897 245.017 34.1376C245.017 29.186 243.148 23.259 237.244 23.259C231.339 23.259 229.546 29.186 229.546 34.1376C229.546 39.0897 231.339 44.942 237.244 44.942ZM237.244 13.5049C249.276 13.5049 257.723 22.4335 257.723 34.1376C257.723 45.8421 249.276 54.6951 237.244 54.6951C225.21 54.6951 216.84 45.8421 216.84 34.1376C216.84 22.4335 225.21 13.5049 237.244 13.5049Z" fill="#243746"/>
<path d="M299.965 53.5701H287.633V48.2437H287.483C285.091 52.2193 280.159 54.6951 275.673 54.6951C264.537 54.6951 261.323 48.2437 261.323 38.0395V14.6304H274.03V37.2135C274.03 42.391 276.272 44.1918 280.308 44.1918C283.073 44.1918 287.259 42.3909 287.259 35.4885V14.6304H299.965V53.5701Z" fill="#243746"/>
<path d="M324.478 23.2589C318.872 23.2589 317.078 28.2105 317.078 33.0125C317.078 37.5888 319.172 42.166 324.403 42.166C329.785 42.166 332.102 37.9636 332.102 33.0872C332.102 28.1357 330.159 23.2589 324.478 23.2589ZM344.135 48.8437C344.135 55.2204 342.938 67.2255 324.777 67.2255C315.733 67.2255 307.213 65.1989 305.717 54.7708H318.424C318.722 56.4964 319.395 57.5461 320.592 58.1468C321.712 58.7469 323.282 58.9721 325.225 58.9721C331.279 58.9721 331.877 54.695 331.877 49.8934V46.2169H331.727C329.411 49.8191 325.524 51.9202 321.413 51.9202C309.679 51.9202 304.372 43.5164 304.372 32.5625C304.372 22.2086 310.427 13.5048 321.413 13.5048C326.047 13.5048 329.56 15.5304 331.803 19.5075H331.952V14.6303H344.135V48.8437Z" fill="#243746"/>
<path d="M349.612 0H362.317V19.9568H362.467C364.409 15.9802 369.642 13.5045 374.276 13.5045C387.206 13.5045 388.252 22.9585 388.252 28.5856V53.5697H375.547V34.7379C375.547 29.4109 376.144 24.0087 369.192 24.0087C364.409 24.0087 362.317 28.0601 362.317 32.3368V53.5697H349.612V0Z" fill="#243746"/>
<path d="M416.76 22.883H408.912V40.5894C408.912 43.6658 410.707 44.3412 413.474 44.3412C414.519 44.3412 415.64 44.1912 416.76 44.1912V53.5695C414.445 53.6448 412.127 53.9443 409.81 53.9443C398.972 53.9443 396.208 50.7927 396.208 40.2146V22.883H389.779V14.6297H396.208V2.85038H408.912V14.6297H416.76V22.883Z" fill="#243746"/>
<path d="M145.175 63.1243V80.2123H141.627V63.1243H145.175Z" fill="#243746"/>
<path d="M152.495 63.1243L159.229 74.5888H159.274V63.1243H162.595V80.2123H159.047L152.337 68.7717H152.291V80.2123H148.97V63.1243H152.495Z" fill="#243746"/>
<path d="M173.102 77.0532C173.614 77.0532 174.111 76.9656 174.592 76.7893C175.075 76.615 175.504 76.3228 175.88 75.9168C176.258 75.5097 176.56 74.98 176.785 74.3249C177.012 73.6712 177.124 72.8731 177.124 71.9323C177.124 71.0707 177.045 70.2918 176.887 69.5976C176.729 68.9039 176.469 68.3102 176.108 67.8145C175.745 67.3209 175.268 66.9411 174.672 66.6786C174.077 66.4147 173.342 66.2835 172.47 66.2835H169.938V77.0532H173.102ZM173.351 63.1243C174.39 63.1243 175.358 63.3002 176.254 63.6508C177.149 64.0018 177.926 64.5282 178.581 65.2303C179.237 65.932 179.748 66.8099 180.118 67.863C180.487 68.9153 180.671 70.1522 180.671 71.5733C180.671 72.8171 180.521 73.9659 180.219 75.019C179.917 76.0713 179.463 76.9814 178.853 77.7479C178.243 78.5129 177.482 79.1156 176.57 79.5538C175.659 79.9934 174.586 80.2123 173.351 80.2123H166.391V63.1243H173.351Z" fill="#243746"/>
<path d="M194.788 78.9071C193.567 80.0321 191.88 80.5946 189.726 80.5946C187.543 80.5946 185.852 80.036 184.653 78.9195C183.456 77.8028 182.858 76.0797 182.858 73.7499V63.1238H186.405V73.7499C186.405 74.213 186.443 74.6675 186.517 75.1141C186.593 75.5613 186.751 75.9559 186.992 76.2991C187.233 76.6417 187.569 76.9215 187.998 77.1368C188.428 77.3522 189.004 77.4597 189.726 77.4597C190.992 77.4597 191.865 77.1607 192.347 76.5625C192.83 75.9633 193.071 75.0265 193.071 73.7499V63.1238H196.618V73.7499C196.618 76.0638 196.008 77.7831 194.788 78.9071Z" fill="#243746"/>
<path d="M202.617 75.9995C202.813 76.3991 203.073 76.7225 203.397 76.9685C203.721 77.2161 204.101 77.3994 204.538 77.5197C204.976 77.6394 205.427 77.6989 205.894 77.6989C206.211 77.6989 206.549 77.6716 206.91 77.6147C207.272 77.5587 207.611 77.4513 207.927 77.2919C208.244 77.1334 208.507 76.9131 208.719 76.6342C208.93 76.3545 209.034 75.9995 209.034 75.5682C209.034 75.1068 208.895 74.7319 208.616 74.4442C208.339 74.1569 207.974 73.9174 207.522 73.7267C207.07 73.5345 206.557 73.3677 205.985 73.2236C205.412 73.08 204.832 72.9206 204.245 72.7448C203.641 72.5849 203.055 72.3893 202.482 72.1581C201.91 71.9277 201.397 71.6282 200.945 71.2608C200.493 70.8939 200.128 70.4349 199.849 69.8842C199.571 69.3346 199.431 68.6687 199.431 67.8863C199.431 67.0084 199.609 66.2468 199.963 65.6006C200.316 64.955 200.78 64.4163 201.352 63.9854C201.925 63.5547 202.573 63.2352 203.295 63.0273C204.019 62.8209 204.741 62.7168 205.465 62.7168C206.308 62.7168 207.118 62.8168 207.894 63.0164C208.669 63.2155 209.359 63.5388 209.961 63.9854C210.564 64.4326 211.042 65.002 211.396 65.6962C211.749 66.3909 211.927 67.2326 211.927 68.2215H208.493C208.462 67.71 208.36 67.2882 208.187 66.9529C208.014 66.6172 207.784 66.3548 207.499 66.1626C207.212 65.971 206.884 65.8364 206.515 65.7556C206.146 65.6764 205.744 65.6368 205.307 65.6368C205.02 65.6368 204.733 65.6689 204.448 65.7323C204.161 65.7962 203.901 65.9076 203.668 66.0676C203.434 66.2276 203.242 66.4266 203.092 66.6658C202.942 66.9045 202.866 67.2074 202.866 67.5754C202.866 67.9095 202.926 68.1819 203.048 68.3889C203.168 68.5963 203.405 68.787 203.759 68.9633C204.112 69.139 204.602 69.3143 205.227 69.4891C205.852 69.6649 206.669 69.8892 207.679 70.1601C207.98 70.2229 208.398 70.3393 208.933 70.5067C209.468 70.6751 209.999 70.9409 210.527 71.3089C211.054 71.6752 211.509 72.1664 211.893 72.7805C212.277 73.395 212.469 74.1808 212.469 75.1379C212.469 75.9203 212.326 76.6451 212.04 77.3161C211.754 77.986 211.329 78.5639 210.763 79.0507C210.199 79.5384 209.498 79.9172 208.662 80.1885C207.826 80.4594 206.857 80.5946 205.759 80.5946C204.87 80.5946 204.007 80.4791 203.171 80.2474C202.335 80.0162 201.597 79.6538 200.957 79.1585C200.316 78.6644 199.807 78.0341 199.431 77.268C199.055 76.502 198.874 75.5934 198.889 74.5398H202.324C202.324 75.1141 202.421 75.6004 202.617 75.9995Z" fill="#243746"/>
<path d="M213.417 66.2835V63.1243H226.635V66.2835H221.8V80.2123H218.253V66.2835H213.417Z" fill="#243746"/>
<path d="M236.578 70.8553C237.39 70.8553 238.001 70.6632 238.408 70.2795C238.815 69.8966 239.018 69.2743 239.018 68.4127C239.018 67.5833 238.815 66.9817 238.408 66.6063C238.001 66.2315 237.39 66.0434 236.578 66.0434H232.692V70.8553H236.578ZM237.844 63.1243C238.566 63.1243 239.217 63.2482 239.798 63.4942C240.378 63.7418 240.874 64.081 241.288 64.5124C241.702 64.9426 242.019 65.4418 242.238 66.0076C242.456 66.5741 242.565 67.1847 242.565 67.8383C242.565 68.8435 242.365 69.714 241.966 70.4478C241.567 71.1821 240.916 71.7401 240.013 72.1229V72.171C240.449 72.2981 240.81 72.4937 241.096 72.7576C241.383 73.0202 241.617 73.3321 241.797 73.6911C241.978 74.0501 242.11 74.4447 242.192 74.8759C242.276 75.3068 242.333 75.737 242.363 76.1684C242.378 76.4391 242.392 76.7586 242.407 77.125C242.422 77.4924 242.449 77.8662 242.487 78.2504C242.525 78.6327 242.585 78.9956 242.667 79.3384C242.751 79.6824 242.874 79.9731 243.04 80.2123H239.491C239.297 79.6701 239.176 79.0239 239.13 78.2737C239.086 77.5236 239.018 76.8056 238.927 76.1198C238.807 75.226 238.551 74.5725 238.159 74.1575C237.768 73.7431 237.126 73.5351 236.239 73.5351H232.692V80.2123H229.143V63.1243H237.844Z" fill="#243746"/>
<path d="M249.683 63.1243V80.2123H246.135V63.1243H249.683Z" fill="#243746"/>
<path d="M265.545 63.1243V66.2835H257.027V69.9452H264.846V72.8651H257.027V77.0532H265.727V80.2123H253.48V63.1243H265.545Z" fill="#243746"/>
<path d="M270.902 75.9995C271.098 76.3991 271.356 76.7225 271.681 76.9685C272.005 77.2161 272.386 77.3994 272.824 77.5197C273.259 77.6394 273.711 77.6989 274.179 77.6989C274.496 77.6989 274.833 77.6716 275.195 77.6147C275.558 77.5587 275.896 77.4513 276.212 77.2919C276.529 77.1334 276.791 76.9131 277.002 76.6342C277.213 76.3545 277.319 75.9995 277.319 75.5682C277.319 75.1068 277.18 74.7319 276.901 74.4442C276.622 74.1569 276.257 73.9174 275.805 73.7267C275.353 73.5345 274.84 73.3677 274.268 73.2236C273.696 73.08 273.117 72.9206 272.528 72.7448C271.927 72.5849 271.339 72.3893 270.767 72.1581C270.193 71.9277 269.682 71.6282 269.23 71.2608C268.778 70.8939 268.412 70.4349 268.135 69.8842C267.855 69.3346 267.717 68.6687 267.717 67.8863C267.717 67.0084 267.893 66.2468 268.246 65.6006C268.601 64.955 269.064 64.4163 269.637 63.9854C270.209 63.5547 270.856 63.2352 271.58 63.0273C272.302 62.8209 273.027 62.7168 273.749 62.7168C274.593 62.7168 275.402 62.8168 276.179 63.0164C276.954 63.2155 277.644 63.5388 278.245 63.9854C278.848 64.4326 279.327 65.002 279.68 65.6962C280.034 66.3909 280.211 67.2326 280.211 68.2215H276.776C276.747 67.71 276.645 67.2882 276.472 66.9529C276.298 66.6172 276.069 66.3548 275.782 66.1626C275.497 65.971 275.169 65.8364 274.8 65.7556C274.43 65.6764 274.028 65.6368 273.591 65.6368C273.304 65.6368 273.018 65.6689 272.732 65.7323C272.446 65.7962 272.186 65.9076 271.952 66.0676C271.719 66.2276 271.527 66.4266 271.377 66.6658C271.226 66.9045 271.151 67.2074 271.151 67.5754C271.151 67.9095 271.21 68.1819 271.331 68.3889C271.452 68.5963 271.689 68.787 272.042 68.9633C272.397 69.139 272.886 69.3143 273.511 69.4891C274.137 69.6649 274.954 69.8892 275.964 70.1601C276.265 70.2229 276.683 70.3393 277.218 70.5067C277.752 70.6751 278.284 70.9409 278.81 71.3089C279.338 71.6752 279.793 72.1664 280.178 72.7805C280.561 73.395 280.754 74.1808 280.754 75.1379C280.754 75.9203 280.611 76.6451 280.324 77.3161C280.038 77.986 279.612 78.5639 279.048 79.0507C278.483 79.5384 277.783 79.9172 276.947 80.1885C276.111 80.4594 275.142 80.5946 274.042 80.5946C273.153 80.5946 272.292 80.4791 271.456 80.2474C270.619 80.0162 269.88 79.6538 269.241 79.1585C268.601 78.6644 268.092 78.0341 267.717 77.268C267.34 76.502 267.158 75.5934 267.174 74.5398H270.609C270.609 75.1141 270.706 75.6004 270.902 75.9995Z" fill="#243746"/>
<path d="M20.0574 39.3472H0V-8.33137e-05H79.9454V20.0568H20.0574V39.3472Z" fill="#9FCFCA"/>
<path d="M20.0769 99.9999H40.1339V39.2861H20.0769V99.9999Z" fill="#E7D21F"/>
<path d="M59.8885 79.931H79.9459V39.2862H59.8885V79.931Z" fill="#E7D21F"/>
<path d="M99.9988 39.3472H79.9414V20.0646H99.9988V39.3472Z" fill="#A4BBC2"/>
</svg>
